<svg xmlns="http://www.w3.org/2000/svg" version="1.1" xmlns:xlink="http://www.w3.org/1999/xlink" xmlns:svgjs="http://svgjs.dev/svgjs" viewBox="0 0 18.609046050117705 15.13894314483631"><g transform="matrix(1,0,0,1,1.3972232203713535,11.779344924464956)"><g><path d=" M 0.5325 1.0799999999999996 Q 0.3915 1.0799999999999996 0.29175 1.0327499999999996 Q 0.192 0.9854999999999997 0.13725 0.8947499999999997 Q 0.0825 0.8039999999999997 0.078 0.6749999999999997 Q 0.0765 0.6104999999999997 0.0765 0.5369999999999997 Q 0.0765 0.4634999999999997 0.078 0.39749999999999974 Q 0.0825 0.27149999999999974 0.13725 0.18299999999999972 Q 0.192 0.0944999999999997 0.29325 0.04724999999999979 Q 0.3945 -2.220446049250313e-16 0.5325 -2.220446049250313e-16 Q 0.6435 -2.220446049250313e-16 0.7275 0.028499999999999748 Q 0.8115 0.05699999999999972 0.8685 0.10274999999999967 Q 0.9255 0.14849999999999974 0.9555 0.20249999999999968 Q 0.9855 0.25649999999999973 0.987 0.3059999999999997 Q 0.987 0.3194999999999997 0.978 0.3292499999999997 Q 0.969 0.33899999999999975 0.9540000000000001 0.33899999999999975 L 0.768 0.33899999999999975 Q 0.753 0.33899999999999975 0.74475 0.33299999999999974 Q 0.7365 0.32699999999999974 0.7305 0.3149999999999997 Q 0.72 0.2879999999999997 0.69675 0.26024999999999976 Q 0.6735 0.2324999999999997 0.6345000000000001 0.21299999999999975 Q 0.5955 0.19349999999999967 0.5325 0.19349999999999967 Q 0.438 0.19349999999999967 0.38325000000000004 0.24299999999999966 Q 0.3285 0.29249999999999976 0.324 0.4049999999999997 Q 0.3195 0.5339999999999997 0.324 0.6674999999999998 Q 0.3285 0.7844999999999998 0.38475 0.8354999999999997 Q 0.441 0.8864999999999997 0.5355 0.8864999999999997 Q 0.597 0.8864999999999997 0.64575 0.8647499999999997 Q 0.6945 0.8429999999999997 0.723 0.7964999999999998 Q 0.7515000000000001 0.7499999999999998 0.7515000000000001 0.6779999999999997 L 0.7515000000000001 0.6404999999999997 L 0.588 0.6404999999999997 Q 0.5730000000000001 0.6404999999999997 0.5625 0.6292499999999996 Q 0.552 0.6179999999999997 0.552 0.6029999999999998 L 0.552 0.5069999999999997 Q 0.552 0.4904999999999997 0.5625 0.47999999999999976 Q 0.5730000000000001 0.4694999999999997 0.588 0.4694999999999997 L 0.9555 0.4694999999999997 Q 0.972 0.4694999999999997 0.9825 0.47999999999999976 Q 0.993 0.4904999999999997 0.993 0.5069999999999997 L 0.993 0.6704999999999997 Q 0.993 0.7994999999999997 0.93675 0.8909999999999997 Q 0.8805000000000001 0.9824999999999997 0.77625 1.0312499999999998 Q 0.672 1.0799999999999996 0.5325 1.0799999999999996 M 1.2285329589843752 1.0649999999999997 Q 1.2120329589843752 1.0649999999999997 1.201532958984375 1.0544999999999998 Q 1.1910329589843751 1.0439999999999998 1.1910329589843751 1.0274999999999996 L 1.1910329589843751 0.05249999999999977 Q 1.1910329589843751 0.03599999999999981 1.201532958984375 0.025499999999999634 Q 1.2120329589843752 0.01499999999999968 1.2285329589843752 0.01499999999999968 L 1.6260329589843752 0.01499999999999968 Q 1.8135329589843752 0.01499999999999968 1.921532958984375 0.10124999999999973 Q 2.029532958984375 0.18749999999999967 2.029532958984375 0.3494999999999997 Q 2.029532958984375 0.45899999999999974 1.9770329589843751 0.5324999999999998 Q 1.9245329589843752 0.6059999999999997 1.8360329589843751 0.6419999999999997 L 2.047532958984375 1.0169999999999997 Q 2.052032958984375 1.0259999999999998 2.052032958984375 1.0334999999999996 Q 2.052032958984375 1.0454999999999997 2.043032958984375 1.0552499999999998 Q 2.0340329589843753 1.0649999999999997 2.0205329589843752 1.0649999999999997 L 1.8540329589843751 1.0649999999999997 Q 1.827032958984375 1.0649999999999997 1.8135329589843752 1.0507499999999996 Q 1.800032958984375 1.0364999999999998 1.794032958984375 1.0244999999999997 L 1.6110329589843753 0.6809999999999997 L 1.429532958984375 0.6809999999999997 L 1.429532958984375 1.0274999999999996 Q 1.429532958984375 1.0439999999999998 1.419032958984375 1.0544999999999998 Q 1.4085329589843751 1.0649999999999997 1.3920329589843752 1.0649999999999997 L 1.2285329589843752 1.0649999999999997 M 1.429532958984375 0.4904999999999997 L 1.6215329589843752 0.4904999999999997 Q 1.7040329589843752 0.4904999999999997 1.7437829589843752 0.45299999999999974 Q 1.7835329589843751 0.41549999999999976 1.7835329589843751 0.34799999999999975 Q 1.7835329589843751 0.28049999999999975 1.744532958984375 0.24149999999999971 Q 1.7055329589843753 0.20249999999999968 1.6215329589843752 0.20249999999999968 L 1.429532958984375 0.20249999999999968 L 1.429532958984375 0.4904999999999997 M 2.266543212890625 1.0649999999999997 Q 2.2500432128906254 1.0649999999999997 2.2395432128906254 1.0544999999999998 Q 2.2290432128906255 1.0439999999999998 2.2290432128906255 1.0274999999999996 L 2.2290432128906255 0.05249999999999977 Q 2.2290432128906255 0.03599999999999981 2.2395432128906254 0.025499999999999634 Q 2.2500432128906254 0.01499999999999968 2.266543212890625 0.01499999999999968 L 2.9460432128906255 0.01499999999999968 Q 2.9625432128906253 0.01499999999999968 2.9730432128906252 0.025499999999999634 Q 2.983543212890625 0.03599999999999981 2.983543212890625 0.05249999999999977 L 2.983543212890625 0.17249999999999965 Q 2.983543212890625 0.18749999999999967 2.9730432128906252 0.19799999999999973 Q 2.9625432128906253 0.20849999999999969 2.9460432128906255 0.20849999999999969 L 2.4600432128906253 0.20849999999999969 L 2.4600432128906253 0.44399999999999973 L 2.913043212890625 0.44399999999999973 Q 2.9295432128906254 0.44399999999999973 2.9400432128906253 0.4544999999999997 Q 2.9505432128906253 0.46499999999999975 2.9505432128906253 0.4814999999999997 L 2.9505432128906253 0.5924999999999997 Q 2.9505432128906253 0.6074999999999997 2.9400432128906253 0.6179999999999997 Q 2.9295432128906254 0.6284999999999997 2.913043212890625 0.6284999999999997 L 2.4600432128906253 0.6284999999999997 L 2.4600432128906253 0.8714999999999997 L 2.958043212890625 0.8714999999999997 Q 2.9745432128906253 0.8714999999999997 2.9850432128906252 0.8819999999999997 Q 2.995543212890625 0.8924999999999997 2.995543212890625 0.9089999999999997 L 2.995543212890625 1.0274999999999996 Q 2.995543212890625 1.0439999999999998 2.9850432128906252 1.0544999999999998 Q 2.9745432128906253 1.0649999999999997 2.958043212890625 1.0649999999999997 L 2.266543212890625 1.0649999999999997 M 3.2265505371093752 1.0649999999999997 Q 3.2100505371093755 1.0649999999999997 3.1995505371093755 1.0544999999999998 Q 3.1890505371093756 1.0439999999999998 3.1890505371093756 1.0274999999999996 L 3.1890505371093756 0.05249999999999977 Q 3.1890505371093756 0.03599999999999981 3.1995505371093755 0.025499999999999634 Q 3.2100505371093755 0.01499999999999968 3.2265505371093752 0.01499999999999968 L 3.906050537109375 0.01499999999999968 Q 3.9225505371093754 0.01499999999999968 3.9330505371093754 0.025499999999999634 Q 3.9435505371093753 0.03599999999999981 3.9435505371093753 0.05249999999999977 L 3.9435505371093753 0.17249999999999965 Q 3.9435505371093753 0.18749999999999967 3.9330505371093754 0.19799999999999973 Q 3.9225505371093754 0.20849999999999969 3.906050537109375 0.20849999999999969 L 3.4200505371093755 0.20849999999999969 L 3.4200505371093755 0.44399999999999973 L 3.8730505371093753 0.44399999999999973 Q 3.8895505371093755 0.44399999999999973 3.9000505371093754 0.4544999999999997 Q 3.9105505371093754 0.46499999999999975 3.9105505371093754 0.4814999999999997 L 3.9105505371093754 0.5924999999999997 Q 3.9105505371093754 0.6074999999999997 3.9000505371093754 0.6179999999999997 Q 3.8895505371093755 0.6284999999999997 3.8730505371093753 0.6284999999999997 L 3.4200505371093755 0.6284999999999997 L 3.4200505371093755 0.8714999999999997 L 3.9180505371093752 0.8714999999999997 Q 3.9345505371093754 0.8714999999999997 3.9450505371093754 0.8819999999999997 Q 3.9555505371093753 0.8924999999999997 3.9555505371093753 0.9089999999999997 L 3.9555505371093753 1.0274999999999996 Q 3.9555505371093753 1.0439999999999998 3.9450505371093754 1.0544999999999998 Q 3.9345505371093754 1.0649999999999997 3.9180505371093752 1.0649999999999997 L 3.2265505371093752 1.0649999999999997 M 4.186557861328126 1.0649999999999997 Q 4.170057861328125 1.0649999999999997 4.159557861328126 1.0544999999999998 Q 4.149057861328125 1.0439999999999998 4.149057861328125 1.0274999999999996 L 4.149057861328125 0.05249999999999977 Q 4.149057861328125 0.03599999999999981 4.159557861328126 0.025499999999999634 Q 4.170057861328125 0.01499999999999968 4.186557861328126 0.01499999999999968 L 4.323057861328126 0.01499999999999968 Q 4.345557861328126 0.01499999999999968 4.356057861328125 0.025499999999999634 Q 4.3665578613281255 0.03599999999999981 4.369557861328126 0.04199999999999959 L 4.770057861328126 0.6674999999999998 L 4.770057861328126 0.05249999999999977 Q 4.770057861328126 0.03599999999999981 4.780557861328125 0.025499999999999634 Q 4.791057861328126 0.01499999999999968 4.806057861328125 0.01499999999999968 L 4.959057861328126 0.01499999999999968 Q 4.9755578613281255 0.01499999999999968 4.986057861328126 0.025499999999999634 Q 4.996557861328125 0.03599999999999981 4.996557861328125 0.05249999999999977 L 4.996557861328125 1.0274999999999996 Q 4.996557861328125 1.0424999999999998 4.986057861328126 1.0537499999999997 Q 4.9755578613281255 1.0649999999999997 4.959057861328126 1.0649999999999997 L 4.821057861328126 1.0649999999999997 Q 4.798557861328126 1.0649999999999997 4.7888078613281255 1.0537499999999997 Q 4.779057861328125 1.0424999999999998 4.774557861328126 1.0379999999999998 L 4.375557861328126 0.4319999999999997 L 4.375557861328126 1.0274999999999996 Q 4.375557861328126 1.0439999999999998 4.3650578613281255 1.0544999999999998 Q 4.354557861328125 1.0649999999999997 4.338057861328125 1.0649999999999997 L 4.186557861328126 1.0649999999999997 M 5.271076904296876 1.0649999999999997 Q 5.254576904296876 1.0649999999999997 5.244076904296876 1.0544999999999998 Q 5.233576904296876 1.0439999999999998 5.233576904296876 1.0274999999999996 L 5.233576904296876 0.05249999999999977 Q 5.233576904296876 0.03599999999999981 5.244076904296876 0.025499999999999634 Q 5.254576904296876 0.01499999999999968 5.271076904296876 0.01499999999999968 L 5.4375769042968765 0.01499999999999968 Q 5.454076904296876 0.01499999999999968 5.464576904296876 0.025499999999999634 Q 5.475076904296876 0.03599999999999981 5.475076904296876 0.05249999999999977 L 5.475076904296876 0.8639999999999997 L 5.940076904296876 0.8639999999999997 Q 5.956576904296876 0.8639999999999997 5.967076904296876 0.8744999999999997 Q 5.9775769042968765 0.8849999999999998 5.9775769042968765 0.9014999999999997 L 5.9775769042968765 1.0274999999999996 Q 5.9775769042968765 1.0439999999999998 5.967076904296876 1.0544999999999998 Q 5.956576904296876 1.0649999999999997 5.940076904296876 1.0649999999999997 L 5.271076904296876 1.0649999999999997 M 6.168095947265626 1.0649999999999997 Q 6.151595947265625 1.0649999999999997 6.141095947265626 1.0544999999999998 Q 6.1305959472656255 1.0439999999999998 6.1305959472656255 1.0274999999999996 L 6.1305959472656255 0.05249999999999977 Q 6.1305959472656255 0.03599999999999981 6.141095947265626 0.025499999999999634 Q 6.151595947265625 0.01499999999999968 6.168095947265626 0.01499999999999968 L 6.337595947265625 0.01499999999999968 Q 6.354095947265626 0.01499999999999968 6.3645959472656255 0.025499999999999634 Q 6.375095947265626 0.03599999999999981 6.375095947265626 0.05249999999999977 L 6.375095947265626 1.0274999999999996 Q 6.375095947265626 1.0439999999999998 6.3645959472656255 1.0544999999999998 Q 6.354095947265626 1.0649999999999997 6.337595947265625 1.0649999999999997 L 6.168095947265626 1.0649999999999997 M 6.649557128906251 1.0649999999999997 Q 6.63305712890625 1.0649999999999997 6.622557128906251 1.0544999999999998 Q 6.61205712890625 1.0439999999999998 6.61205712890625 1.0274999999999996 L 6.61205712890625 0.05249999999999977 Q 6.61205712890625 0.03599999999999981 6.622557128906251 0.025499999999999634 Q 6.63305712890625 0.01499999999999968 6.649557128906251 0.01499999999999968 L 6.786057128906251 0.01499999999999968 Q 6.8085571289062505 0.01499999999999968 6.81905712890625 0.025499999999999634 Q 6.82955712890625 0.03599999999999981 6.8325571289062506 0.04199999999999959 L 7.233057128906251 0.6674999999999998 L 7.233057128906251 0.05249999999999977 Q 7.233057128906251 0.03599999999999981 7.24355712890625 0.025499999999999634 Q 7.2540571289062505 0.01499999999999968 7.26905712890625 0.01499999999999968 L 7.422057128906251 0.01499999999999968 Q 7.43855712890625 0.01499999999999968 7.449057128906251 0.025499999999999634 Q 7.45955712890625 0.03599999999999981 7.45955712890625 0.05249999999999977 L 7.45955712890625 1.0274999999999996 Q 7.45955712890625 1.0424999999999998 7.449057128906251 1.0537499999999997 Q 7.43855712890625 1.0649999999999997 7.422057128906251 1.0649999999999997 L 7.284057128906251 1.0649999999999997 Q 7.261557128906251 1.0649999999999997 7.2518071289062505 1.0537499999999997 Q 7.24205712890625 1.0424999999999998 7.237557128906251 1.0379999999999998 L 6.838557128906251 0.4319999999999997 L 6.838557128906251 1.0274999999999996 Q 6.838557128906251 1.0439999999999998 6.82805712890625 1.0544999999999998 Q 6.81755712890625 1.0649999999999997 6.80105712890625 1.0649999999999997 L 6.649557128906251 1.0649999999999997 M 7.734076171875001 1.0649999999999997 Q 7.717576171875001 1.0649999999999997 7.707076171875001 1.0544999999999998 Q 7.696576171875001 1.0439999999999998 7.696576171875001 1.0274999999999996 L 7.696576171875001 0.05249999999999977 Q 7.696576171875001 0.03599999999999981 7.707076171875001 0.025499999999999634 Q 7.717576171875001 0.01499999999999968 7.734076171875001 0.01499999999999968 L 8.413576171875 0.01499999999999968 Q 8.430076171875001 0.01499999999999968 8.440576171875001 0.025499999999999634 Q 8.451076171875002 0.03599999999999981 8.451076171875002 0.05249999999999977 L 8.451076171875002 0.17249999999999965 Q 8.451076171875002 0.18749999999999967 8.440576171875001 0.19799999999999973 Q 8.430076171875001 0.20849999999999969 8.413576171875 0.20849999999999969 L 7.927576171875001 0.20849999999999969 L 7.927576171875001 0.44399999999999973 L 8.380576171875001 0.44399999999999973 Q 8.397076171875002 0.44399999999999973 8.407576171875 0.4544999999999997 Q 8.418076171875 0.46499999999999975 8.418076171875 0.4814999999999997 L 8.418076171875 0.5924999999999997 Q 8.418076171875 0.6074999999999997 8.407576171875 0.6179999999999997 Q 8.397076171875002 0.6284999999999997 8.380576171875001 0.6284999999999997 L 7.927576171875001 0.6284999999999997 L 7.927576171875001 0.8714999999999997 L 8.425576171875 0.8714999999999997 Q 8.442076171875001 0.8714999999999997 8.452576171875002 0.8819999999999997 Q 8.463076171875 0.8924999999999997 8.463076171875 0.9089999999999997 L 8.463076171875 1.0274999999999996 Q 8.463076171875 1.0439999999999998 8.452576171875002 1.0544999999999998 Q 8.442076171875001 1.0649999999999997 8.425576171875 1.0649999999999997 L 7.734076171875001 1.0649999999999997 M 8.694083496093752 1.0649999999999997 Q 8.677583496093751 1.0649999999999997 8.66708349609375 1.0544999999999998 Q 8.656583496093752 1.0439999999999998 8.656583496093752 1.0274999999999996 L 8.656583496093752 0.05249999999999977 Q 8.656583496093752 0.03599999999999981 8.66708349609375 0.025499999999999634 Q 8.677583496093751 0.01499999999999968 8.694083496093752 0.01499999999999968 L 9.103583496093751 0.01499999999999968 Q 9.225083496093752 0.01499999999999968 9.314333496093752 0.05249999999999977 Q 9.403583496093752 0.08999999999999975 9.453833496093752 0.16574999999999973 Q 9.504083496093752 0.24149999999999971 9.504083496093752 0.35399999999999976 Q 9.504083496093752 0.46799999999999975 9.453833496093752 0.5422499999999997 Q 9.403583496093752 0.6164999999999997 9.314333496093752 0.6524999999999996 Q 9.225083496093752 0.6884999999999997 9.103583496093751 0.6884999999999997 L 8.90258349609375 0.6884999999999997 L 8.90258349609375 1.0274999999999996 Q 8.90258349609375 1.0439999999999998 8.892083496093752 1.0544999999999998 Q 8.881583496093752 1.0649999999999997 8.865083496093751 1.0649999999999997 L 8.694083496093752 1.0649999999999997 M 8.89808349609375 0.5024999999999997 L 9.096083496093751 0.5024999999999997 Q 9.172583496093752 0.5024999999999997 9.215333496093752 0.46499999999999975 Q 9.258083496093752 0.42749999999999966 9.258083496093752 0.3524999999999997 Q 9.258083496093752 0.28649999999999975 9.219833496093752 0.24449999999999972 Q 9.18158349609375 0.20249999999999968 9.096083496093751 0.20249999999999968 L 8.89808349609375 0.20249999999999968 L 8.89808349609375 0.5024999999999997 M 9.709571777343752 1.0649999999999997 Q 9.693071777343752 1.0649999999999997 9.682571777343751 1.0544999999999998 Q 9.672071777343753 1.0439999999999998 9.672071777343753 1.0274999999999996 L 9.672071777343753 0.05249999999999977 Q 9.672071777343753 0.03599999999999981 9.682571777343751 0.025499999999999634 Q 9.693071777343752 0.01499999999999968 9.709571777343752 0.01499999999999968 L 9.876071777343752 0.01499999999999968 Q 9.892571777343752 0.01499999999999968 9.903071777343753 0.025499999999999634 Q 9.913571777343751 0.03599999999999981 9.913571777343751 0.05249999999999977 L 9.913571777343751 0.8639999999999997 L 10.378571777343753 0.8639999999999997 Q 10.395071777343752 0.8639999999999997 10.405571777343752 0.8744999999999997 Q 10.416071777343753 0.8849999999999998 10.416071777343753 0.9014999999999997 L 10.416071777343753 1.0274999999999996 Q 10.416071777343753 1.0439999999999998 10.405571777343752 1.0544999999999998 Q 10.395071777343752 1.0649999999999997 10.378571777343753 1.0649999999999997 L 9.709571777343752 1.0649999999999997 M 10.977125244140627 1.0799999999999996 Q 10.845125244140627 1.0799999999999996 10.746125244140627 1.0357499999999997 Q 10.647125244140629 0.9914999999999997 10.593125244140628 0.8992499999999997 Q 10.539125244140628 0.8069999999999997 10.539125244140628 0.6644999999999996 L 10.539125244140628 0.05249999999999977 Q 10.539125244140628 0.03599999999999981 10.549625244140628 0.025499999999999634 Q 10.560125244140627 0.01499999999999968 10.576625244140628 0.01499999999999968 L 10.740125244140629 0.01499999999999968 Q 10.756625244140627 0.01499999999999968 10.767125244140628 0.025499999999999634 Q 10.777625244140628 0.03599999999999981 10.777625244140628 0.05249999999999977 L 10.777625244140628 0.6629999999999997 Q 10.777625244140628 0.7739999999999998 10.830125244140628 0.8279999999999997 Q 10.882625244140627 0.8819999999999997 10.977125244140627 0.8819999999999997 Q 11.070125244140627 0.8819999999999997 11.122625244140627 0.8279999999999997 Q 11.175125244140627 0.7739999999999998 11.175125244140627 0.6629999999999997 L 11.175125244140627 0.05249999999999977 Q 11.175125244140627 0.03599999999999981 11.186375244140628 0.025499999999999634 Q 11.197625244140628 0.01499999999999968 11.212625244140627 0.01499999999999968 L 11.377625244140628 0.01499999999999968 Q 11.392625244140628 0.01499999999999968 11.403125244140627 0.025499999999999634 Q 11.413625244140627 0.03599999999999981 11.413625244140627 0.05249999999999977 L 11.413625244140627 0.6644999999999996 Q 11.413625244140627 0.8069999999999997 11.359625244140627 0.8992499999999997 Q 11.305625244140629 0.9914999999999997 11.208125244140628 1.0357499999999997 Q 11.110625244140628 1.0799999999999996 10.977125244140627 1.0799999999999996 M 11.679116455078129 1.0649999999999997 Q 11.664116455078128 1.0649999999999997 11.652866455078128 1.0544999999999998 Q 11.641616455078129 1.0439999999999998 11.641616455078129 1.0274999999999996 L 11.641616455078129 0.05249999999999977 Q 11.641616455078129 0.03599999999999981 11.652866455078128 0.025499999999999634 Q 11.664116455078128 0.01499999999999968 11.679116455078129 0.01499999999999968 L 11.818616455078129 0.01499999999999968 Q 11.841116455078128 0.01499999999999968 11.852366455078128 0.02699999999999969 Q 11.863616455078128 0.0389999999999997 11.868116455078129 0.04499999999999971 L 12.144116455078128 0.5534999999999997 L 12.423116455078128 0.04499999999999971 Q 12.426116455078128 0.0389999999999997 12.437366455078129 0.02699999999999969 Q 12.448616455078128 0.01499999999999968 12.471116455078128 0.01499999999999968 L 12.610616455078128 0.01499999999999968 Q 12.627116455078129 0.01499999999999968 12.637616455078128 0.025499999999999634 Q 12.648116455078128 0.03599999999999981 12.648116455078128 0.05249999999999977 L 12.648116455078128 1.0274999999999996 Q 12.648116455078128 1.0439999999999998 12.637616455078128 1.0544999999999998 Q 12.627116455078129 1.0649999999999997 12.610616455078128 1.0649999999999997 L 12.457616455078128 1.0649999999999997 Q 12.442616455078129 1.0649999999999997 12.432116455078129 1.0544999999999998 Q 12.421616455078128 1.0439999999999998 12.421616455078128 1.0274999999999996 L 12.421616455078128 0.42149999999999976 L 12.231116455078128 0.7784999999999997 Q 12.223616455078128 0.7919999999999997 12.21161645507813 0.8024999999999998 Q 12.199616455078129 0.8129999999999997 12.180116455078128 0.8129999999999997 L 12.109616455078129 0.8129999999999997 Q 12.090116455078128 0.8129999999999997 12.078116455078128 0.8024999999999998 Q 12.066116455078129 0.7919999999999997 12.058616455078129 0.7784999999999997 L 11.868116455078129 0.42149999999999976 L 11.868116455078129 1.0274999999999996 Q 11.868116455078129 1.0439999999999998 11.857616455078128 1.0544999999999998 Q 11.847116455078128 1.0649999999999997 11.832116455078129 1.0649999999999997 L 11.679116455078129 1.0649999999999997 M 12.92257104492188 1.0649999999999997 Q 12.906071044921879 1.0649999999999997 12.895571044921878 1.0544999999999998 Q 12.88507104492188 1.0439999999999998 12.88507104492188 1.0274999999999996 L 12.88507104492188 0.05249999999999977 Q 12.88507104492188 0.03599999999999981 12.895571044921878 0.025499999999999634 Q 12.906071044921879 0.01499999999999968 12.92257104492188 0.01499999999999968 L 13.368071044921878 0.01499999999999968 Q 13.49257104492188 0.01499999999999968 13.572071044921879 0.05099999999999971 Q 13.651571044921878 0.08699999999999974 13.689821044921878 0.1529999999999997 Q 13.72807104492188 0.21899999999999975 13.72807104492188 0.30749999999999966 Q 13.72807104492188 0.36299999999999966 13.707821044921879 0.4049999999999997 Q 13.687571044921878 0.44699999999999973 13.658321044921879 0.47399999999999975 Q 13.62907104492188 0.5009999999999997 13.602071044921878 0.5144999999999997 Q 13.660571044921879 0.5414999999999998 13.704821044921879 0.6037499999999998 Q 13.749071044921878 0.6659999999999997 13.749071044921878 0.7514999999999997 Q 13.749071044921878 0.8459999999999998 13.707071044921879 0.9164999999999998 Q 13.665071044921879 0.9869999999999998 13.58257104492188 1.0259999999999998 Q 13.500071044921878 1.0649999999999997 13.381571044921879 1.0649999999999997 L 12.92257104492188 1.0649999999999997 M 13.12357104492188 0.8894999999999997 L 13.35307104492188 0.8894999999999997 Q 13.426571044921879 0.8894999999999997 13.464071044921878 0.8482499999999997 Q 13.501571044921878 0.8069999999999997 13.501571044921878 0.7499999999999998 Q 13.501571044921878 0.6914999999999998 13.463321044921878 0.6517499999999997 Q 13.425071044921879 0.6119999999999997 13.35307104492188 0.6119999999999997 L 13.12357104492188 0.6119999999999997 L 13.12357104492188 0.8894999999999997 M 13.12357104492188 0.43949999999999967 L 13.339571044921879 0.43949999999999967 Q 13.410071044921878 0.43949999999999967 13.44532104492188 0.40424999999999967 Q 13.480571044921879 0.36899999999999966 13.480571044921879 0.31349999999999967 Q 13.480571044921879 0.2579999999999997 13.44532104492188 0.22424999999999973 Q 13.410071044921878 0.19049999999999967 13.339571044921879 0.19049999999999967 L 13.12357104492188 0.19049999999999967 L 13.12357104492188 0.43949999999999967 M 13.980082031250005 1.0649999999999997 Q 13.963582031250004 1.0649999999999997 13.953082031250004 1.0544999999999998 Q 13.942582031250005 1.0439999999999998 13.942582031250005 1.0274999999999996 L 13.942582031250005 0.05249999999999977 Q 13.942582031250005 0.03599999999999981 13.953082031250004 0.025499999999999634 Q 13.963582031250004 0.01499999999999968 13.980082031250005 0.01499999999999968 L 14.659582031250004 0.01499999999999968 Q 14.676082031250004 0.01499999999999968 14.686582031250005 0.025499999999999634 Q 14.697082031250005 0.03599999999999981 14.697082031250005 0.05249999999999977 L 14.697082031250005 0.17249999999999965 Q 14.697082031250005 0.18749999999999967 14.686582031250005 0.19799999999999973 Q 14.676082031250004 0.20849999999999969 14.659582031250004 0.20849999999999969 L 14.173582031250005 0.20849999999999969 L 14.173582031250005 0.44399999999999973 L 14.626582031250004 0.44399999999999973 Q 14.643082031250005 0.44399999999999973 14.653582031250004 0.4544999999999997 Q 14.664082031250004 0.46499999999999975 14.664082031250004 0.4814999999999997 L 14.664082031250004 0.5924999999999997 Q 14.664082031250004 0.6074999999999997 14.653582031250004 0.6179999999999997 Q 14.643082031250005 0.6284999999999997 14.626582031250004 0.6284999999999997 L 14.173582031250005 0.6284999999999997 L 14.173582031250005 0.8714999999999997 L 14.671582031250004 0.8714999999999997 Q 14.688082031250005 0.8714999999999997 14.698582031250005 0.8819999999999997 Q 14.709082031250004 0.8924999999999997 14.709082031250004 0.9089999999999997 L 14.709082031250004 1.0274999999999996 Q 14.709082031250004 1.0439999999999998 14.698582031250005 1.0544999999999998 Q 14.688082031250005 1.0649999999999997 14.671582031250004 1.0649999999999997 L 13.980082031250005 1.0649999999999997 M 14.940089355468755 1.0649999999999997 Q 14.923589355468755 1.0649999999999997 14.913089355468754 1.0544999999999998 Q 14.902589355468756 1.0439999999999998 14.902589355468756 1.0274999999999996 L 14.902589355468756 0.05249999999999977 Q 14.902589355468756 0.03599999999999981 14.913089355468754 0.025499999999999634 Q 14.923589355468755 0.01499999999999968 14.940089355468755 0.01499999999999968 L 15.337589355468754 0.01499999999999968 Q 15.525089355468754 0.01499999999999968 15.633089355468755 0.10124999999999973 Q 15.741089355468755 0.18749999999999967 15.741089355468755 0.3494999999999997 Q 15.741089355468755 0.45899999999999974 15.688589355468755 0.5324999999999998 Q 15.636089355468755 0.6059999999999997 15.547589355468755 0.6419999999999997 L 15.759089355468754 1.0169999999999997 Q 15.763589355468755 1.0259999999999998 15.763589355468755 1.0334999999999996 Q 15.763589355468755 1.0454999999999997 15.754589355468754 1.0552499999999998 Q 15.745589355468756 1.0649999999999997 15.732089355468755 1.0649999999999997 L 15.565589355468756 1.0649999999999997 Q 15.538589355468755 1.0649999999999997 15.525089355468754 1.0507499999999996 Q 15.511589355468756 1.0364999999999998 15.505589355468755 1.0244999999999997 L 15.322589355468756 0.6809999999999997 L 15.141089355468756 0.6809999999999997 L 15.141089355468756 1.0274999999999996 Q 15.141089355468756 1.0439999999999998 15.130589355468755 1.0544999999999998 Q 15.120089355468755 1.0649999999999997 15.103589355468754 1.0649999999999997 L 14.940089355468755 1.0649999999999997 M 15.141089355468756 0.4904999999999997 L 15.333089355468754 0.4904999999999997 Q 15.415589355468756 0.4904999999999997 15.455339355468755 0.45299999999999974 Q 15.495089355468755 0.41549999999999976 15.495089355468755 0.34799999999999975 Q 15.495089355468755 0.28049999999999975 15.456089355468755 0.24149999999999971 Q 15.417089355468756 0.20249999999999968 15.333089355468754 0.20249999999999968 L 15.141089355468756 0.20249999999999968 L 15.141089355468756 0.4904999999999997" fill="#000000" fill-rule="nonzero"></path></g><g><path d=" M 1.9094943237304685 1.9548749999999997 Q 1.9034943237304685 1.9548749999999997 1.8989943237304685 1.9503749999999997 Q 1.8944943237304683 1.9458749999999998 1.8944943237304683 1.9398749999999998 Q 1.8944943237304683 1.9361249999999997 1.8952443237304684 1.9316249999999997 L 2.0812443237304685 1.4463749999999997 Q 2.0842443237304686 1.4388749999999997 2.0894943237304684 1.4343749999999997 Q 2.0947443237304686 1.4298749999999996 2.1052443237304685 1.4298749999999996 L 2.1562443237304683 1.4298749999999996 Q 2.1667443237304687 1.4298749999999996 2.1719943237304684 1.4343749999999997 Q 2.1772443237304686 1.4388749999999997 2.1802443237304683 1.4463749999999997 L 2.365494323730468 1.9316249999999997 Q 2.3669943237304683 1.9361249999999997 2.3669943237304683 1.9398749999999998 Q 2.3669943237304683 1.9458749999999998 2.3624943237304685 1.9503749999999997 Q 2.3579943237304684 1.9548749999999997 2.3519943237304686 1.9548749999999997 L 2.3137443237304685 1.9548749999999997 Q 2.3047443237304686 1.9548749999999997 2.3006193237304684 1.9503749999999997 Q 2.2964943237304682 1.9458749999999998 2.2949943237304686 1.9421249999999997 L 2.2537443237304684 1.8356249999999996 L 2.0077443237304684 1.8356249999999996 L 1.9664943237304684 1.9421249999999997 Q 1.9657443237304684 1.9458749999999998 1.9612443237304684 1.9503749999999997 Q 1.9567443237304685 1.9548749999999997 1.9477443237304684 1.9548749999999997 L 1.9094943237304685 1.9548749999999997 M 2.0294943237304683 1.7711249999999996 L 2.2319943237304685 1.7711249999999996 L 2.1307443237304686 1.5048749999999997 L 2.0294943237304683 1.7711249999999996 M 2.6437271118164056 1.9548749999999997 Q 2.6354771118164058 1.9548749999999997 2.6309771118164056 1.9499999999999997 Q 2.6264771118164054 1.9451249999999998 2.6264771118164054 1.9376249999999997 L 2.6264771118164054 1.4478749999999998 Q 2.6264771118164054 1.4396249999999997 2.6309771118164056 1.4347499999999997 Q 2.6354771118164058 1.4298749999999996 2.6437271118164056 1.4298749999999996 L 2.8342271118164057 1.4298749999999996 Q 2.8897271118164056 1.4298749999999996 2.9306021118164054 1.4478749999999998 Q 2.9714771118164056 1.4658749999999996 2.9939771118164056 1.5014999999999996 Q 3.0164771118164055 1.5371249999999996 3.0164771118164055 1.5903749999999997 Q 3.0164771118164055 1.6436249999999997 2.9939771118164056 1.6788749999999997 Q 2.9714771118164056 1.7141249999999997 2.9306021118164054 1.7321249999999997 Q 2.8897271118164056 1.7501249999999997 2.8342271118164057 1.7501249999999997 L 2.7014771118164056 1.7501249999999997 L 2.7014771118164056 1.9376249999999997 Q 2.7014771118164056 1.9451249999999998 2.6966021118164054 1.9499999999999997 Q 2.6917271118164057 1.9548749999999997 2.683477111816406 1.9548749999999997 L 2.6437271118164056 1.9548749999999997 M 2.7007271118164056 1.6871249999999998 L 2.8304771118164056 1.6871249999999998 Q 2.8859771118164055 1.6871249999999998 2.9137271118164056 1.6623749999999997 Q 2.941477111816406 1.6376249999999997 2.941477111816406 1.5903749999999997 Q 2.941477111816406 1.5438749999999997 2.9144771118164057 1.5183749999999998 Q 2.8874771118164055 1.4928749999999997 2.8304771118164056 1.4928749999999997 L 2.7007271118164056 1.4928749999999997 L 2.7007271118164056 1.6871249999999998 M 3.132748718261718 1.9548749999999997 Q 3.124498718261718 1.9548749999999997 3.119998718261718 1.9499999999999997 Q 3.1154987182617178 1.9451249999999998 3.1154987182617178 1.9376249999999997 L 3.1154987182617178 1.4471249999999998 Q 3.1154987182617178 1.4396249999999997 3.119998718261718 1.4347499999999997 Q 3.124498718261718 1.4298749999999996 3.132748718261718 1.4298749999999996 L 3.172498718261718 1.4298749999999996 Q 3.179998718261718 1.4298749999999996 3.184873718261718 1.4347499999999997 Q 3.189748718261718 1.4396249999999997 3.189748718261718 1.4471249999999998 L 3.189748718261718 1.8896249999999997 L 3.438748718261718 1.8896249999999997 Q 3.446998718261718 1.8896249999999997 3.451873718261718 1.8944999999999996 Q 3.456748718261718 1.8993749999999996 3.456748718261718 1.9076249999999997 L 3.456748718261718 1.9376249999999997 Q 3.456748718261718 1.9451249999999998 3.451873718261718 1.9499999999999997 Q 3.446998718261718 1.9548749999999997 3.438748718261718 1.9548749999999997 L 3.132748718261718 1.9548749999999997 M 3.7304683227539055 1.9623749999999998 Q 3.6674683227539053 1.9623749999999998 3.6220933227539054 1.9398749999999998 Q 3.5767183227539054 1.9173749999999996 3.5523433227539054 1.8712499999999996 Q 3.5279683227539054 1.8251249999999997 3.5279683227539054 1.7523749999999998 L 3.5279683227539054 1.4478749999999998 Q 3.5279683227539054 1.4396249999999997 3.532468322753905 1.4347499999999997 Q 3.5369683227539053 1.4298749999999996 3.545218322753905 1.4298749999999996 L 3.5834683227539053 1.4298749999999996 Q 3.591718322753905 1.4298749999999996 3.5965933227539053 1.4347499999999997 Q 3.6014683227539055 1.4396249999999997 3.6014683227539055 1.4478749999999998 L 3.6014683227539055 1.7538749999999996 Q 3.6014683227539055 1.8273749999999997 3.6359683227539055 1.8626249999999998 Q 3.6704683227539054 1.8978749999999998 3.7304683227539055 1.8978749999999998 Q 3.789718322753905 1.8978749999999998 3.8245933227539055 1.8626249999999998 Q 3.859468322753905 1.8273749999999997 3.859468322753905 1.7538749999999996 L 3.859468322753905 1.4478749999999998 Q 3.859468322753905 1.4396249999999997 3.8643433227539052 1.4347499999999997 Q 3.8692183227539054 1.4298749999999996 3.8767183227539053 1.4298749999999996 L 3.9157183227539054 1.4298749999999996 Q 3.9232183227539053 1.4298749999999996 3.9280933227539054 1.4347499999999997 Q 3.932968322753905 1.4396249999999997 3.932968322753905 1.4478749999999998 L 3.932968322753905 1.7523749999999998 Q 3.932968322753905 1.8251249999999997 3.908593322753905 1.8712499999999996 Q 3.884218322753905 1.9173749999999996 3.839218322753905 1.9398749999999998 Q 3.7942183227539052 1.9623749999999998 3.7304683227539055 1.9623749999999998 M 4.082959899902343 1.9548749999999997 Q 4.075459899902343 1.9548749999999997 4.070584899902343 1.9499999999999997 Q 4.065709899902343 1.9451249999999998 4.065709899902343 1.9376249999999997 L 4.065709899902343 1.4478749999999998 Q 4.065709899902343 1.4396249999999997 4.070584899902343 1.4347499999999997 Q 4.075459899902343 1.4298749999999996 4.082959899902343 1.4298749999999996 L 4.120459899902343 1.4298749999999996 Q 4.1294598999023435 1.4298749999999996 4.133959899902343 1.4343749999999997 Q 4.138459899902343 1.4388749999999997 4.139959899902343 1.4418749999999996 L 4.298209899902343 1.7448749999999997 L 4.4579598999023435 1.4418749999999996 Q 4.459459899902343 1.4388749999999997 4.463584899902343 1.4343749999999997 Q 4.467709899902343 1.4298749999999996 4.476709899902343 1.4298749999999996 L 4.513459899902343 1.4298749999999996 Q 4.521709899902343 1.4298749999999996 4.5265848999023435 1.4347499999999997 Q 4.531459899902343 1.4396249999999997 4.531459899902343 1.4478749999999998 L 4.531459899902343 1.9376249999999997 Q 4.531459899902343 1.9451249999999998 4.5265848999023435 1.9499999999999997 Q 4.521709899902343 1.9548749999999997 4.513459899902343 1.9548749999999997 L 4.476709899902343 1.9548749999999997 Q 4.469209899902343 1.9548749999999997 4.464334899902343 1.9499999999999997 Q 4.459459899902343 1.9451249999999998 4.459459899902343 1.9376249999999997 L 4.459459899902343 1.5686249999999997 L 4.334209899902343 1.8131249999999997 Q 4.331209899902343 1.8206249999999997 4.325209899902343 1.8247499999999997 Q 4.319209899902343 1.8288749999999996 4.310209899902343 1.8288749999999996 L 4.286959899902343 1.8288749999999996 Q 4.277209899902343 1.8288749999999996 4.271959899902343 1.8247499999999997 Q 4.266709899902343 1.8206249999999997 4.262959899902343 1.8131249999999997 L 4.136959899902343 1.5686249999999997 L 4.136959899902343 1.9376249999999997 Q 4.136959899902343 1.9451249999999998 4.132084899902343 1.9499999999999997 Q 4.127209899902343 1.9548749999999997 4.119709899902343 1.9548749999999997 L 4.082959899902343 1.9548749999999997 M 4.68596466064453 1.9548749999999997 Q 4.677714660644531 1.9548749999999997 4.673214660644531 1.9499999999999997 Q 4.668714660644531 1.9451249999999998 4.668714660644531 1.9376249999999997 L 4.668714660644531 1.4478749999999998 Q 4.668714660644531 1.4396249999999997 4.673214660644531 1.4347499999999997 Q 4.677714660644531 1.4298749999999996 4.68596466064453 1.4298749999999996 L 4.891464660644531 1.4298749999999996 Q 4.947714660644531 1.4298749999999996 4.983339660644531 1.4482499999999998 Q 5.018964660644531 1.4666249999999996 5.035839660644531 1.4981249999999997 Q 5.052714660644531 1.5296249999999998 5.052714660644531 1.5686249999999997 Q 5.052714660644531 1.5993749999999998 5.042589660644531 1.6214999999999997 Q 5.032464660644531 1.6436249999999997 5.017464660644531 1.6574999999999998 Q 5.002464660644531 1.6713749999999996 4.988214660644531 1.6788749999999997 Q 5.017464660644531 1.6931249999999998 5.0403396606445305 1.7253749999999997 Q 5.0632146606445305 1.7576249999999998 5.0632146606445305 1.8033749999999997 Q 5.0632146606445305 1.8446249999999997 5.044464660644531 1.8791249999999997 Q 5.025714660644531 1.9136249999999997 4.988589660644531 1.9342499999999998 Q 4.951464660644531 1.9548749999999997 4.8974646606445305 1.9548749999999997 L 4.68596466064453 1.9548749999999997 M 4.742214660644531 1.8941249999999996 L 4.887714660644531 1.8941249999999996 Q 4.935714660644531 1.8941249999999996 4.961964660644531 1.8678749999999997 Q 4.988214660644531 1.8416249999999996 4.988214660644531 1.8033749999999997 Q 4.988214660644531 1.7636249999999998 4.961964660644531 1.7377499999999997 Q 4.935714660644531 1.7118749999999996 4.887714660644531 1.7118749999999996 L 4.742214660644531 1.7118749999999996 L 4.742214660644531 1.8941249999999996 M 4.742214660644531 1.6518749999999998 L 4.880214660644531 1.6518749999999998 Q 4.928214660644531 1.6518749999999998 4.952964660644531 1.6297499999999996 Q 4.977714660644531 1.6076249999999996 4.977714660644531 1.5693749999999997 Q 4.977714660644531 1.5311249999999996 4.952964660644531 1.5108749999999997 Q 4.928214660644531 1.4906249999999996 4.880214660644531 1.4906249999999996 L 4.742214660644531 1.4906249999999996 L 4.742214660644531 1.6518749999999998 M 5.194486999511718 1.9548749999999997 Q 5.186236999511719 1.9548749999999997 5.181736999511719 1.9499999999999997 Q 5.1772369995117185 1.9451249999999998 5.1772369995117185 1.9376249999999997 L 5.1772369995117185 1.4471249999999998 Q 5.1772369995117185 1.4396249999999997 5.181736999511719 1.4347499999999997 Q 5.186236999511719 1.4298749999999996 5.194486999511718 1.4298749999999996 L 5.234236999511719 1.4298749999999996 Q 5.242486999511718 1.4298749999999996 5.246986999511718 1.4347499999999997 Q 5.251486999511719 1.4396249999999997 5.251486999511719 1.4471249999999998 L 5.251486999511719 1.9376249999999997 Q 5.251486999511719 1.9451249999999998 5.246986999511718 1.9499999999999997 Q 5.242486999511718 1.9548749999999997 5.234236999511719 1.9548749999999997 L 5.194486999511718 1.9548749999999997 M 5.406744689941406 1.9548749999999997 Q 5.398494689941407 1.9548749999999997 5.393994689941406 1.9499999999999997 Q 5.389494689941406 1.9451249999999998 5.389494689941406 1.9376249999999997 L 5.389494689941406 1.4478749999999998 Q 5.389494689941406 1.4396249999999997 5.393994689941406 1.4347499999999997 Q 5.398494689941407 1.4298749999999996 5.406744689941406 1.4298749999999996 L 5.441244689941406 1.4298749999999996 Q 5.450244689941407 1.4298749999999996 5.454744689941406 1.4339999999999997 Q 5.459244689941406 1.4381249999999997 5.459994689941406 1.4403749999999997 L 5.708994689941407 1.8228749999999998 L 5.708994689941407 1.4478749999999998 Q 5.708994689941407 1.4396249999999997 5.713494689941406 1.4347499999999997 Q 5.717994689941406 1.4298749999999996 5.726244689941407 1.4298749999999996 L 5.762244689941406 1.4298749999999996 Q 5.7704946899414065 1.4298749999999996 5.775369689941407 1.4347499999999997 Q 5.780244689941407 1.4396249999999997 5.780244689941407 1.4478749999999998 L 5.780244689941407 1.9368749999999997 Q 5.780244689941407 1.9443749999999997 5.775369689941407 1.9496249999999997 Q 5.7704946899414065 1.9548749999999997 5.762994689941406 1.9548749999999997 L 5.726994689941407 1.9548749999999997 Q 5.718744689941406 1.9548749999999997 5.714619689941406 1.9503749999999997 Q 5.710494689941406 1.9458749999999998 5.708994689941407 1.9443749999999997 L 5.460744689941406 1.5656249999999998 L 5.460744689941406 1.9376249999999997 Q 5.460744689941406 1.9451249999999998 5.455869689941406 1.9499999999999997 Q 5.450994689941407 1.9548749999999997 5.4427446899414065 1.9548749999999997 L 5.406744689941406 1.9548749999999997 M 6.109500183105469 1.9623749999999998 Q 6.042750183105469 1.9623749999999998 5.996625183105469 1.9376249999999997 Q 5.950500183105469 1.9128749999999997 5.926125183105469 1.8678749999999997 Q 5.901750183105469 1.8228749999999998 5.898750183105469 1.7621249999999997 Q 5.898000183105469 1.7291249999999998 5.898000183105469 1.6919999999999997 Q 5.898000183105469 1.6548749999999997 5.898750183105469 1.6211249999999997 Q 5.901750183105469 1.5603749999999996 5.926125183105469 1.5157499999999997 Q 5.950500183105469 1.4711249999999998 5.997000183105469 1.4467499999999998 Q 6.043500183105469 1.4223749999999997 6.109500183105469 1.4223749999999997 Q 6.162000183105469 1.4223749999999997 6.201000183105469 1.4373749999999998 Q 6.240000183105469 1.4523749999999995 6.265125183105469 1.4752499999999997 Q 6.290250183105469 1.4981249999999997 6.302625183105469 1.5228749999999998 Q 6.315000183105469 1.5476249999999996 6.315750183105469 1.5663749999999996 Q 6.316500183105469 1.5731249999999997 6.312000183105469 1.5772499999999998 Q 6.30750018310547 1.5813749999999998 6.300000183105469 1.5813749999999998 L 6.255750183105469 1.5813749999999998 Q 6.248250183105469 1.5813749999999998 6.244875183105469 1.5783749999999996 Q 6.241500183105469 1.5753749999999997 6.23850018310547 1.5678749999999997 Q 6.231750183105469 1.5483749999999996 6.21637518310547 1.5296249999999998 Q 6.201000183105469 1.5108749999999997 6.175125183105469 1.4984999999999997 Q 6.149250183105469 1.4861249999999997 6.109500183105469 1.4861249999999997 Q 6.0495001831054696 1.4861249999999997 6.013125183105469 1.5183749999999998 Q 5.9767501831054695 1.5506249999999997 5.973750183105469 1.6248749999999996 Q 5.971500183105469 1.6916249999999997 5.973750183105469 1.7583749999999996 Q 5.9767501831054695 1.8333749999999998 6.013500183105469 1.8659999999999997 Q 6.05025018310547 1.8986249999999998 6.109500183105469 1.8986249999999998 Q 6.149250183105469 1.8986249999999998 6.180375183105469 1.8836249999999997 Q 6.2115001831054695 1.8686249999999998 6.229500183105469 1.8382499999999997 Q 6.247500183105469 1.8078749999999997 6.247500183105469 1.7606249999999997 L 6.247500183105469 1.7291249999999998 L 6.135000183105469 1.7291249999999998 Q 6.127500183105469 1.7291249999999998 6.12262518310547 1.7242499999999996 Q 6.1177501831054695 1.7193749999999997 6.1177501831054695 1.7111249999999998 L 6.1177501831054695 1.6871249999999998 Q 6.1177501831054695 1.6788749999999997 6.12262518310547 1.6739999999999997 Q 6.127500183105469 1.6691249999999997 6.135000183105469 1.6691249999999997 L 6.3045001831054694 1.6691249999999997 Q 6.312750183105469 1.6691249999999997 6.317250183105469 1.6739999999999997 Q 6.321750183105469 1.6788749999999997 6.321750183105469 1.6871249999999998 L 6.321750183105469 1.7591249999999996 Q 6.321750183105469 1.8206249999999997 6.296625183105469 1.8663749999999997 Q 6.271500183105469 1.9121249999999996 6.223500183105469 1.9372499999999997 Q 6.175500183105469 1.9623749999999998 6.109500183105469 1.9623749999999998 M 6.796473449707032 1.9623749999999998 Q 6.7312234497070325 1.9623749999999998 6.686973449707033 1.9421249999999997 Q 6.642723449707033 1.9218749999999998 6.619098449707033 1.8899999999999997 Q 6.595473449707033 1.8581249999999998 6.593973449707033 1.8228749999999998 Q 6.593973449707033 1.8168749999999996 6.598848449707032 1.8119999999999996 Q 6.603723449707032 1.8071249999999996 6.610473449707032 1.8071249999999996 L 6.648723449707032 1.8071249999999996 Q 6.657723449707032 1.8071249999999996 6.6622234497070325 1.8116249999999996 Q 6.666723449707033 1.8161249999999998 6.668223449707032 1.8221249999999998 Q 6.672723449707032 1.8401249999999998 6.686973449707033 1.8577499999999998 Q 6.701223449707032 1.8753749999999998 6.727848449707032 1.8869999999999998 Q 6.7544734497070325 1.8986249999999998 6.796473449707032 1.8986249999999998 Q 6.860973449707032 1.8986249999999998 6.891348449707032 1.8757499999999996 Q 6.921723449707033 1.8528749999999996 6.921723449707033 1.8146249999999997 Q 6.921723449707033 1.7883749999999996 6.905598449707032 1.7722499999999997 Q 6.889473449707032 1.7561249999999997 6.856473449707032 1.7433749999999997 Q 6.823473449707032 1.7306249999999996 6.770973449707032 1.7156249999999997 Q 6.716223449707032 1.6998749999999996 6.680223449707032 1.6811249999999998 Q 6.644223449707033 1.6623749999999997 6.626598449707032 1.6346249999999998 Q 6.608973449707032 1.6068749999999996 6.608973449707032 1.5641249999999998 Q 6.608973449707032 1.5236249999999996 6.630723449707032 1.4917499999999997 Q 6.652473449707032 1.4598749999999998 6.693723449707032 1.4411249999999995 Q 6.734973449707033 1.4223749999999997 6.792723449707032 1.4223749999999997 Q 6.839223449707032 1.4223749999999997 6.8740984497070325 1.4347499999999997 Q 6.908973449707032 1.4471249999999998 6.932223449707032 1.4677499999999997 Q 6.955473449707032 1.4883749999999996 6.9674734497070325 1.5119999999999996 Q 6.979473449707032 1.5356249999999996 6.980223449707032 1.5581249999999998 Q 6.980223449707032 1.5633749999999997 6.976473449707032 1.5682499999999997 Q 6.972723449707033 1.5731249999999997 6.964473449707032 1.5731249999999997 L 6.924723449707033 1.5731249999999997 Q 6.9194734497070325 1.5731249999999997 6.913848449707032 1.5701249999999998 Q 6.908223449707032 1.5671249999999997 6.905223449707032 1.5588749999999996 Q 6.900723449707033 1.5281249999999997 6.870723449707032 1.5071249999999996 Q 6.840723449707032 1.4861249999999997 6.792723449707032 1.4861249999999997 Q 6.743973449707032 1.4861249999999997 6.713598449707033 1.5048749999999997 Q 6.683223449707032 1.5236249999999996 6.683223449707032 1.5633749999999997 Q 6.683223449707032 1.5888749999999998 6.697473449707032 1.6057499999999996 Q 6.711723449707033 1.6226249999999998 6.742473449707032 1.6353749999999998 Q 6.773223449707032 1.6481249999999996 6.822723449707032 1.6623749999999997 Q 6.882723449707032 1.6788749999999997 6.9209734497070325 1.6972499999999997 Q 6.959223449707032 1.7156249999999997 6.977598449707032 1.7429999999999997 Q 6.995973449707032 1.7703749999999996 6.995973449707032 1.8131249999999997 Q 6.995973449707032 1.8603749999999997 6.971223449707033 1.8937499999999996 Q 6.946473449707033 1.9271249999999998 6.901848449707032 1.9447499999999998 Q 6.857223449707032 1.9623749999999998 6.796473449707032 1.9623749999999998 M 7.118980407714845 1.9548749999999997 Q 7.110730407714845 1.9548749999999997 7.106230407714845 1.9499999999999997 Q 7.101730407714845 1.9451249999999998 7.101730407714845 1.9376249999999997 L 7.101730407714845 1.4478749999999998 Q 7.101730407714845 1.4396249999999997 7.106230407714845 1.4347499999999997 Q 7.110730407714845 1.4298749999999996 7.118980407714845 1.4298749999999996 L 7.428730407714845 1.4298749999999996 Q 7.436980407714845 1.4298749999999996 7.441480407714845 1.4347499999999997 Q 7.4459804077148455 1.4396249999999997 7.4459804077148455 1.4478749999999998 L 7.4459804077148455 1.4763749999999995 Q 7.4459804077148455 1.4846249999999996 7.441480407714845 1.4891249999999996 Q 7.436980407714845 1.4936249999999998 7.428730407714845 1.4936249999999998 L 7.173730407714845 1.4936249999999998 L 7.173730407714845 1.6578749999999998 L 7.412230407714845 1.6578749999999998 Q 7.420480407714845 1.6578749999999998 7.424980407714845 1.6627499999999997 Q 7.429480407714845 1.6676249999999997 7.429480407714845 1.6758749999999996 L 7.429480407714845 1.7036249999999997 Q 7.429480407714845 1.7111249999999998 7.424980407714845 1.7159999999999997 Q 7.420480407714845 1.7208749999999997 7.412230407714845 1.7208749999999997 L 7.173730407714845 1.7208749999999997 L 7.173730407714845 1.8911249999999997 L 7.434730407714845 1.8911249999999997 Q 7.442980407714845 1.8911249999999997 7.4474804077148455 1.8956249999999997 Q 7.451980407714845 1.9001249999999996 7.451980407714845 1.9083749999999997 L 7.451980407714845 1.9376249999999997 Q 7.451980407714845 1.9451249999999998 7.4474804077148455 1.9499999999999997 Q 7.442980407714845 1.9548749999999997 7.434730407714845 1.9548749999999997 L 7.118980407714845 1.9548749999999997 M 7.580993957519532 1.9548749999999997 Q 7.572743957519533 1.9548749999999997 7.568243957519533 1.9499999999999997 Q 7.563743957519533 1.9451249999999998 7.563743957519533 1.9376249999999997 L 7.563743957519533 1.4478749999999998 Q 7.563743957519533 1.4396249999999997 7.568243957519533 1.4347499999999997 Q 7.572743957519533 1.4298749999999996 7.580993957519532 1.4298749999999996 L 7.763993957519533 1.4298749999999996 Q 7.848743957519533 1.4298749999999996 7.898243957519533 1.4696249999999997 Q 7.947743957519533 1.5093749999999997 7.947743957519533 1.5873749999999998 Q 7.947743957519533 1.6451249999999997 7.918868957519533 1.6814999999999998 Q 7.889993957519533 1.7178749999999996 7.8404939575195325 1.7321249999999997 L 7.955993957519533 1.9316249999999997 Q 7.9582439575195325 1.9361249999999997 7.9582439575195325 1.9398749999999998 Q 7.9582439575195325 1.9458749999999998 7.953368957519533 1.9503749999999997 Q 7.948493957519533 1.9548749999999997 7.942493957519533 1.9548749999999997 L 7.906493957519533 1.9548749999999997 Q 7.893743957519533 1.9548749999999997 7.8877439575195325 1.9481249999999997 Q 7.881743957519533 1.9413749999999996 7.877243957519533 1.9346249999999996 L 7.768493957519533 1.7441249999999997 L 7.637243957519533 1.7441249999999997 L 7.637243957519533 1.9376249999999997 Q 7.637243957519533 1.9451249999999998 7.632368957519533 1.9499999999999997 Q 7.627493957519533 1.9548749999999997 7.619243957519533 1.9548749999999997 L 7.580993957519532 1.9548749999999997 M 7.637243957519533 1.6803749999999997 L 7.760993957519533 1.6803749999999997 Q 7.8172439575195325 1.6803749999999997 7.844993957519533 1.6567499999999997 Q 7.872743957519533 1.6331249999999997 7.872743957519533 1.5866249999999997 Q 7.872743957519533 1.5408749999999998 7.845368957519533 1.5168749999999998 Q 7.8179939575195325 1.4928749999999997 7.760993957519533 1.4928749999999997 L 7.637243957519533 1.4928749999999997 L 7.637243957519533 1.6803749999999997 M 8.202768859863284 1.9548749999999997 Q 8.191518859863283 1.9548749999999997 8.185143859863283 1.9496249999999997 Q 8.178768859863283 1.9443749999999997 8.175018859863282 1.9353749999999996 L 8.007768859863283 1.4531249999999996 Q 8.006268859863283 1.4486249999999998 8.006268859863283 1.4448749999999997 Q 8.006268859863283 1.4388749999999997 8.010768859863283 1.4343749999999997 Q 8.015268859863284 1.4298749999999996 8.021268859863284 1.4298749999999996 L 8.060268859863283 1.4298749999999996 Q 8.069268859863284 1.4298749999999996 8.074143859863284 1.4347499999999997 Q 8.079018859863282 1.4396249999999997 8.080518859863282 1.4433749999999996 L 8.226768859863283 1.8686249999999998 L 8.373768859863283 1.4433749999999996 Q 8.375268859863283 1.4396249999999997 8.379768859863283 1.4347499999999997 Q 8.384268859863283 1.4298749999999996 8.393268859863284 1.4298749999999996 L 8.432268859863283 1.4298749999999996 Q 8.438268859863284 1.4298749999999996 8.443143859863284 1.4343749999999997 Q 8.448018859863284 1.4388749999999997 8.448018859863284 1.4448749999999997 Q 8.448018859863284 1.4486249999999998 8.446518859863284 1.4531249999999996 L 8.278518859863283 1.9353749999999996 Q 8.275518859863283 1.9443749999999997 8.269143859863282 1.9496249999999997 Q 8.262768859863282 1.9548749999999997 8.251518859863284 1.9548749999999997 L 8.202768859863284 1.9548749999999997 M 8.562790832519532 1.9548749999999997 Q 8.554540832519532 1.9548749999999997 8.550040832519533 1.9499999999999997 Q 8.545540832519533 1.9451249999999998 8.545540832519533 1.9376249999999997 L 8.545540832519533 1.4471249999999998 Q 8.545540832519533 1.4396249999999997 8.550040832519533 1.4347499999999997 Q 8.554540832519532 1.4298749999999996 8.562790832519532 1.4298749999999996 L 8.602540832519532 1.4298749999999996 Q 8.610790832519532 1.4298749999999996 8.615290832519532 1.4347499999999997 Q 8.619790832519532 1.4396249999999997 8.619790832519532 1.4471249999999998 L 8.619790832519532 1.9376249999999997 Q 8.619790832519532 1.9451249999999998 8.615290832519532 1.9499999999999997 Q 8.610790832519532 1.9548749999999997 8.602540832519532 1.9548749999999997 L 8.562790832519532 1.9548749999999997 M 8.946798522949221 1.9623749999999998 Q 8.87779852294922 1.9623749999999998 8.83242352294922 1.9368749999999997 Q 8.78704852294922 1.9113749999999996 8.76379852294922 1.8656249999999996 Q 8.74054852294922 1.8198749999999997 8.73829852294922 1.7591249999999996 Q 8.73754852294922 1.7283749999999998 8.73754852294922 1.6931249999999998 Q 8.73754852294922 1.6578749999999998 8.73829852294922 1.6256249999999997 Q 8.74054852294922 1.5648749999999998 8.76379852294922 1.5191249999999996 Q 8.78704852294922 1.4733749999999997 8.83242352294922 1.4478749999999998 Q 8.87779852294922 1.4223749999999997 8.946798522949221 1.4223749999999997 Q 8.99854852294922 1.4223749999999997 9.037548522949221 1.4366249999999998 Q 9.07654852294922 1.4508749999999997 9.10242352294922 1.4748749999999997 Q 9.12829852294922 1.4988749999999997 9.14179852294922 1.5284999999999997 Q 9.15529852294922 1.5581249999999998 9.15679852294922 1.5896249999999996 Q 9.15754852294922 1.5963749999999997 9.15267352294922 1.6008749999999998 Q 9.14779852294922 1.6053749999999996 9.14104852294922 1.6053749999999996 L 9.09979852294922 1.6053749999999996 Q 9.09304852294922 1.6053749999999996 9.088173522949221 1.6016249999999996 Q 9.083298522949221 1.5978749999999997 9.08104852294922 1.5881249999999998 Q 9.06829852294922 1.5296249999999998 9.03342352294922 1.5078749999999996 Q 8.99854852294922 1.4861249999999997 8.946798522949221 1.4861249999999997 Q 8.88604852294922 1.4861249999999997 8.850798522949221 1.5202499999999997 Q 8.81554852294922 1.5543749999999996 8.81329852294922 1.6293749999999996 Q 8.81104852294922 1.6908749999999997 8.81329852294922 1.7553749999999997 Q 8.81554852294922 1.8303749999999996 8.850798522949221 1.8644999999999996 Q 8.88604852294922 1.8986249999999998 8.946798522949221 1.8986249999999998 Q 8.99854852294922 1.8986249999999998 9.03342352294922 1.8768749999999996 Q 9.06829852294922 1.8551249999999997 9.08104852294922 1.7966249999999997 Q 9.083298522949221 1.7868749999999998 9.088173522949221 1.7831249999999996 Q 9.09304852294922 1.7793749999999997 9.09979852294922 1.7793749999999997 L 9.14104852294922 1.7793749999999997 Q 9.14779852294922 1.7793749999999997 9.15267352294922 1.7834999999999996 Q 9.15754852294922 1.7876249999999998 9.15679852294922 1.7943749999999996 Q 9.15529852294922 1.8258749999999997 9.14179852294922 1.8558749999999997 Q 9.12829852294922 1.8858749999999997 9.10242352294922 1.9098749999999998 Q 9.07654852294922 1.9338749999999998 9.037548522949221 1.9481249999999997 Q 8.99854852294922 1.9623749999999998 8.946798522949221 1.9623749999999998 M 9.28206024169922 1.9548749999999997 Q 9.27381024169922 1.9548749999999997 9.269310241699221 1.9499999999999997 Q 9.264810241699221 1.9451249999999998 9.264810241699221 1.9376249999999997 L 9.264810241699221 1.4478749999999998 Q 9.264810241699221 1.4396249999999997 9.269310241699221 1.4347499999999997 Q 9.27381024169922 1.4298749999999996 9.28206024169922 1.4298749999999996 L 9.591810241699221 1.4298749999999996 Q 9.60006024169922 1.4298749999999996 9.60456024169922 1.4347499999999997 Q 9.60906024169922 1.4396249999999997 9.60906024169922 1.4478749999999998 L 9.60906024169922 1.4763749999999995 Q 9.60906024169922 1.4846249999999996 9.60456024169922 1.4891249999999996 Q 9.60006024169922 1.4936249999999998 9.591810241699221 1.4936249999999998 L 9.33681024169922 1.4936249999999998 L 9.33681024169922 1.6578749999999998 L 9.57531024169922 1.6578749999999998 Q 9.583560241699221 1.6578749999999998 9.588060241699221 1.6627499999999997 Q 9.592560241699221 1.6676249999999997 9.592560241699221 1.6758749999999996 L 9.592560241699221 1.7036249999999997 Q 9.592560241699221 1.7111249999999998 9.588060241699221 1.7159999999999997 Q 9.583560241699221 1.7208749999999997 9.57531024169922 1.7208749999999997 L 9.33681024169922 1.7208749999999997 L 9.33681024169922 1.8911249999999997 L 9.597810241699221 1.8911249999999997 Q 9.60606024169922 1.8911249999999997 9.61056024169922 1.8956249999999997 Q 9.61506024169922 1.9001249999999996 9.61506024169922 1.9083749999999997 L 9.61506024169922 1.9376249999999997 Q 9.61506024169922 1.9451249999999998 9.61056024169922 1.9499999999999997 Q 9.60606024169922 1.9548749999999997 9.597810241699221 1.9548749999999997 L 9.28206024169922 1.9548749999999997 M 9.895573791503908 1.9623749999999998 Q 9.830323791503908 1.9623749999999998 9.786073791503908 1.9421249999999997 Q 9.741823791503908 1.9218749999999998 9.718198791503909 1.8899999999999997 Q 9.694573791503908 1.8581249999999998 9.693073791503908 1.8228749999999998 Q 9.693073791503908 1.8168749999999996 9.697948791503908 1.8119999999999996 Q 9.702823791503908 1.8071249999999996 9.709573791503908 1.8071249999999996 L 9.747823791503908 1.8071249999999996 Q 9.756823791503908 1.8071249999999996 9.761323791503909 1.8116249999999996 Q 9.765823791503909 1.8161249999999998 9.767323791503909 1.8221249999999998 Q 9.771823791503909 1.8401249999999998 9.786073791503908 1.8577499999999998 Q 9.800323791503908 1.8753749999999998 9.826948791503908 1.8869999999999998 Q 9.853573791503909 1.8986249999999998 9.895573791503908 1.8986249999999998 Q 9.960073791503909 1.8986249999999998 9.990448791503908 1.8757499999999996 Q 10.020823791503908 1.8528749999999996 10.020823791503908 1.8146249999999997 Q 10.020823791503908 1.7883749999999996 10.004698791503909 1.7722499999999997 Q 9.988573791503908 1.7561249999999997 9.955573791503909 1.7433749999999997 Q 9.922573791503908 1.7306249999999996 9.87007379150391 1.7156249999999997 Q 9.815323791503909 1.6998749999999996 9.779323791503908 1.6811249999999998 Q 9.743323791503908 1.6623749999999997 9.725698791503909 1.6346249999999998 Q 9.708073791503908 1.6068749999999996 9.708073791503908 1.5641249999999998 Q 9.708073791503908 1.5236249999999996 9.72982379150391 1.4917499999999997 Q 9.751573791503908 1.4598749999999998 9.792823791503908 1.4411249999999995 Q 9.834073791503908 1.4223749999999997 9.891823791503908 1.4223749999999997 Q 9.938323791503908 1.4223749999999997 9.973198791503908 1.4347499999999997 Q 10.008073791503909 1.4471249999999998 10.031323791503908 1.4677499999999997 Q 10.054573791503909 1.4883749999999996 10.066573791503908 1.5119999999999996 Q 10.078573791503908 1.5356249999999996 10.079323791503908 1.5581249999999998 Q 10.079323791503908 1.5633749999999997 10.075573791503908 1.5682499999999997 Q 10.071823791503908 1.5731249999999997 10.063573791503908 1.5731249999999997 L 10.023823791503908 1.5731249999999997 Q 10.018573791503908 1.5731249999999997 10.01294879150391 1.5701249999999998 Q 10.007323791503909 1.5671249999999997 10.004323791503909 1.5588749999999996 Q 9.999823791503909 1.5281249999999997 9.969823791503908 1.5071249999999996 Q 9.939823791503908 1.4861249999999997 9.891823791503908 1.4861249999999997 Q 9.843073791503908 1.4861249999999997 9.812698791503909 1.5048749999999997 Q 9.782323791503908 1.5236249999999996 9.782323791503908 1.5633749999999997 Q 9.782323791503908 1.5888749999999998 9.796573791503908 1.6057499999999996 Q 9.810823791503909 1.6226249999999998 9.841573791503908 1.6353749999999998 Q 9.87232379150391 1.6481249999999996 9.921823791503908 1.6623749999999997 Q 9.981823791503908 1.6788749999999997 10.020073791503908 1.6972499999999997 Q 10.05832379150391 1.7156249999999997 10.076698791503908 1.7429999999999997 Q 10.095073791503909 1.7703749999999996 10.095073791503909 1.8131249999999997 Q 10.095073791503909 1.8603749999999997 10.070323791503908 1.8937499999999996 Q 10.045573791503909 1.9271249999999998 10.000948791503909 1.9447499999999998 Q 9.956323791503909 1.9623749999999998 9.895573791503908 1.9623749999999998 M 10.581077087402347 1.9623749999999998 Q 10.512077087402346 1.9623749999999998 10.466702087402346 1.9368749999999997 Q 10.421327087402346 1.9113749999999996 10.398077087402346 1.8656249999999996 Q 10.374827087402346 1.8198749999999997 10.372577087402346 1.7591249999999996 Q 10.371827087402346 1.7283749999999998 10.371827087402346 1.6931249999999998 Q 10.371827087402346 1.6578749999999998 10.372577087402346 1.6256249999999997 Q 10.374827087402346 1.5648749999999998 10.398077087402346 1.5191249999999996 Q 10.421327087402346 1.4733749999999997 10.466702087402346 1.4478749999999998 Q 10.512077087402346 1.4223749999999997 10.581077087402347 1.4223749999999997 Q 10.632827087402346 1.4223749999999997 10.671827087402347 1.4366249999999998 Q 10.710827087402347 1.4508749999999997 10.736702087402346 1.4748749999999997 Q 10.762577087402347 1.4988749999999997 10.776077087402346 1.5284999999999997 Q 10.789577087402346 1.5581249999999998 10.791077087402346 1.5896249999999996 Q 10.791827087402346 1.5963749999999997 10.786952087402346 1.6008749999999998 Q 10.782077087402346 1.6053749999999996 10.775327087402346 1.6053749999999996 L 10.734077087402346 1.6053749999999996 Q 10.727327087402346 1.6053749999999996 10.722452087402347 1.6016249999999996 Q 10.717577087402347 1.5978749999999997 10.715327087402347 1.5881249999999998 Q 10.702577087402346 1.5296249999999998 10.667702087402347 1.5078749999999996 Q 10.632827087402346 1.4861249999999997 10.581077087402347 1.4861249999999997 Q 10.520327087402347 1.4861249999999997 10.485077087402347 1.5202499999999997 Q 10.449827087402346 1.5543749999999996 10.447577087402346 1.6293749999999996 Q 10.445327087402346 1.6908749999999997 10.447577087402346 1.7553749999999997 Q 10.449827087402346 1.8303749999999996 10.485077087402347 1.8644999999999996 Q 10.520327087402347 1.8986249999999998 10.581077087402347 1.8986249999999998 Q 10.632827087402346 1.8986249999999998 10.667702087402347 1.8768749999999996 Q 10.702577087402346 1.8551249999999997 10.715327087402347 1.7966249999999997 Q 10.717577087402347 1.7868749999999998 10.722452087402347 1.7831249999999996 Q 10.727327087402346 1.7793749999999997 10.734077087402346 1.7793749999999997 L 10.775327087402346 1.7793749999999997 Q 10.782077087402346 1.7793749999999997 10.786952087402346 1.7834999999999996 Q 10.791827087402346 1.7876249999999998 10.791077087402346 1.7943749999999996 Q 10.789577087402346 1.8258749999999997 10.776077087402346 1.8558749999999997 Q 10.762577087402347 1.8858749999999997 10.736702087402346 1.9098749999999998 Q 10.710827087402347 1.9338749999999998 10.671827087402347 1.9481249999999997 Q 10.632827087402346 1.9623749999999998 10.581077087402347 1.9623749999999998 M 11.088088806152347 1.9623749999999998 Q 11.023588806152347 1.9623749999999998 10.977838806152347 1.9402499999999996 Q 10.932088806152347 1.9181249999999996 10.907338806152346 1.8719999999999997 Q 10.882588806152347 1.8258749999999997 10.879588806152347 1.7561249999999997 Q 10.878838806152347 1.7231249999999996 10.878838806152347 1.6927499999999998 Q 10.878838806152347 1.6623749999999997 10.879588806152347 1.6293749999999996 Q 10.882588806152347 1.5603749999999996 10.908463806152346 1.5142499999999997 Q 10.934338806152347 1.4681249999999997 10.980463806152347 1.4452499999999997 Q 11.026588806152347 1.4223749999999997 11.088088806152347 1.4223749999999997 Q 11.148838806152346 1.4223749999999997 11.194963806152346 1.4452499999999997 Q 11.241088806152346 1.4681249999999997 11.267338806152347 1.5142499999999997 Q 11.293588806152346 1.5603749999999996 11.295838806152346 1.6293749999999996 Q 11.297338806152347 1.6623749999999997 11.297338806152347 1.6927499999999998 Q 11.297338806152347 1.7231249999999996 11.295838806152346 1.7561249999999997 Q 11.293588806152346 1.8258749999999997 11.268463806152347 1.8719999999999997 Q 11.243338806152346 1.9181249999999996 11.197588806152346 1.9402499999999996 Q 11.151838806152346 1.9623749999999998 11.088088806152347 1.9623749999999998 M 11.088088806152347 1.8986249999999998 Q 11.145088806152346 1.8986249999999998 11.181463806152347 1.8641249999999996 Q 11.217838806152347 1.8296249999999996 11.220838806152347 1.7523749999999998 Q 11.222338806152347 1.7186249999999996 11.222338806152347 1.6919999999999997 Q 11.222338806152347 1.6653749999999996 11.220838806152347 1.6323749999999997 Q 11.219338806152347 1.5806249999999997 11.201713806152346 1.5483749999999996 Q 11.184088806152348 1.5161249999999997 11.154838806152346 1.5011249999999996 Q 11.125588806152347 1.4861249999999997 11.088088806152347 1.4861249999999997 Q 11.050588806152346 1.4861249999999997 11.021338806152347 1.5011249999999996 Q 10.992088806152347 1.5161249999999997 10.974463806152347 1.5483749999999996 Q 10.956838806152346 1.5806249999999997 10.954588806152346 1.6323749999999997 Q 10.953838806152346 1.6653749999999996 10.953838806152346 1.6919999999999997 Q 10.953838806152346 1.7186249999999996 10.954588806152346 1.7523749999999998 Q 10.957588806152346 1.8296249999999996 10.994338806152347 1.8641249999999996 Q 11.031088806152347 1.8986249999999998 11.088088806152347 1.8986249999999998 M 11.431590270996097 1.9548749999999997 Q 11.424090270996096 1.9548749999999997 11.419215270996098 1.9499999999999997 Q 11.414340270996098 1.9451249999999998 11.414340270996098 1.9376249999999997 L 11.414340270996098 1.4478749999999998 Q 11.414340270996098 1.4396249999999997 11.419215270996098 1.4347499999999997 Q 11.424090270996096 1.4298749999999996 11.431590270996097 1.4298749999999996 L 11.469090270996096 1.4298749999999996 Q 11.478090270996097 1.4298749999999996 11.482590270996097 1.4343749999999997 Q 11.487090270996097 1.4388749999999997 11.488590270996097 1.4418749999999996 L 11.646840270996098 1.7448749999999997 L 11.806590270996097 1.4418749999999996 Q 11.808090270996097 1.4388749999999997 11.812215270996097 1.4343749999999997 Q 11.816340270996097 1.4298749999999996 11.825340270996097 1.4298749999999996 L 11.862090270996097 1.4298749999999996 Q 11.870340270996097 1.4298749999999996 11.875215270996097 1.4347499999999997 Q 11.880090270996098 1.4396249999999997 11.880090270996098 1.4478749999999998 L 11.880090270996098 1.9376249999999997 Q 11.880090270996098 1.9451249999999998 11.875215270996097 1.9499999999999997 Q 11.870340270996097 1.9548749999999997 11.862090270996097 1.9548749999999997 L 11.825340270996097 1.9548749999999997 Q 11.817840270996097 1.9548749999999997 11.812965270996097 1.9499999999999997 Q 11.808090270996097 1.9451249999999998 11.808090270996097 1.9376249999999997 L 11.808090270996097 1.5686249999999997 L 11.682840270996097 1.8131249999999997 Q 11.679840270996097 1.8206249999999997 11.673840270996097 1.8247499999999997 Q 11.667840270996097 1.8288749999999996 11.658840270996096 1.8288749999999996 L 11.635590270996097 1.8288749999999996 Q 11.625840270996097 1.8288749999999996 11.620590270996097 1.8247499999999997 Q 11.615340270996096 1.8206249999999997 11.611590270996096 1.8131249999999997 L 11.485590270996097 1.5686249999999997 L 11.485590270996097 1.9376249999999997 Q 11.485590270996097 1.9451249999999998 11.480715270996097 1.9499999999999997 Q 11.475840270996096 1.9548749999999997 11.468340270996096 1.9548749999999997 L 11.431590270996097 1.9548749999999997 M 12.034595031738284 1.9548749999999997 Q 12.026345031738284 1.9548749999999997 12.021845031738286 1.9499999999999997 Q 12.017345031738285 1.9451249999999998 12.017345031738285 1.9376249999999997 L 12.017345031738285 1.4478749999999998 Q 12.017345031738285 1.4396249999999997 12.021845031738286 1.4347499999999997 Q 12.026345031738284 1.4298749999999996 12.034595031738284 1.4298749999999996 L 12.225095031738284 1.4298749999999996 Q 12.280595031738285 1.4298749999999996 12.321470031738285 1.4478749999999998 Q 12.362345031738284 1.4658749999999996 12.384845031738285 1.5014999999999996 Q 12.407345031738284 1.5371249999999996 12.407345031738284 1.5903749999999997 Q 12.407345031738284 1.6436249999999997 12.384845031738285 1.6788749999999997 Q 12.362345031738284 1.7141249999999997 12.321470031738285 1.7321249999999997 Q 12.280595031738285 1.7501249999999997 12.225095031738284 1.7501249999999997 L 12.092345031738285 1.7501249999999997 L 12.092345031738285 1.9376249999999997 Q 12.092345031738285 1.9451249999999998 12.087470031738285 1.9499999999999997 Q 12.082595031738284 1.9548749999999997 12.074345031738284 1.9548749999999997 L 12.034595031738284 1.9548749999999997 M 12.091595031738285 1.6871249999999998 L 12.221345031738284 1.6871249999999998 Q 12.276845031738285 1.6871249999999998 12.304595031738284 1.6623749999999997 Q 12.332345031738285 1.6376249999999997 12.332345031738285 1.5903749999999997 Q 12.332345031738285 1.5438749999999997 12.305345031738284 1.5183749999999998 Q 12.278345031738285 1.4928749999999997 12.221345031738284 1.4928749999999997 L 12.091595031738285 1.4928749999999997 L 12.091595031738285 1.6871249999999998 M 12.441133117675784 1.9548749999999997 Q 12.435133117675784 1.9548749999999997 12.430633117675786 1.9503749999999997 Q 12.426133117675786 1.9458749999999998 12.426133117675786 1.9398749999999998 Q 12.426133117675786 1.9361249999999997 12.426883117675786 1.9316249999999997 L 12.612883117675786 1.4463749999999997 Q 12.615883117675786 1.4388749999999997 12.621133117675786 1.4343749999999997 Q 12.626383117675784 1.4298749999999996 12.636883117675785 1.4298749999999996 L 12.687883117675785 1.4298749999999996 Q 12.698383117675785 1.4298749999999996 12.703633117675786 1.4343749999999997 Q 12.708883117675786 1.4388749999999997 12.711883117675786 1.4463749999999997 L 12.897133117675786 1.9316249999999997 Q 12.898633117675786 1.9361249999999997 12.898633117675786 1.9398749999999998 Q 12.898633117675786 1.9458749999999998 12.894133117675786 1.9503749999999997 Q 12.889633117675785 1.9548749999999997 12.883633117675785 1.9548749999999997 L 12.845383117675786 1.9548749999999997 Q 12.836383117675785 1.9548749999999997 12.832258117675785 1.9503749999999997 Q 12.828133117675785 1.9458749999999998 12.826633117675785 1.9421249999999997 L 12.785383117675785 1.8356249999999996 L 12.539383117675785 1.8356249999999996 L 12.498133117675785 1.9421249999999997 Q 12.497383117675785 1.9458749999999998 12.492883117675785 1.9503749999999997 Q 12.488383117675784 1.9548749999999997 12.479383117675786 1.9548749999999997 L 12.441133117675784 1.9548749999999997 M 12.561133117675785 1.7711249999999996 L 12.763633117675784 1.7711249999999996 L 12.662383117675786 1.5048749999999997 L 12.561133117675785 1.7711249999999996 M 13.003620300292972 1.9548749999999997 Q 12.995370300292972 1.9548749999999997 12.990870300292974 1.9499999999999997 Q 12.986370300292974 1.9451249999999998 12.986370300292974 1.9376249999999997 L 12.986370300292974 1.4478749999999998 Q 12.986370300292974 1.4396249999999997 12.990870300292974 1.4347499999999997 Q 12.995370300292972 1.4298749999999996 13.003620300292972 1.4298749999999996 L 13.038120300292974 1.4298749999999996 Q 13.047120300292972 1.4298749999999996 13.051620300292972 1.4339999999999997 Q 13.056120300292973 1.4381249999999997 13.056870300292973 1.4403749999999997 L 13.305870300292973 1.8228749999999998 L 13.305870300292973 1.4478749999999998 Q 13.305870300292973 1.4396249999999997 13.310370300292973 1.4347499999999997 Q 13.314870300292974 1.4298749999999996 13.323120300292972 1.4298749999999996 L 13.359120300292973 1.4298749999999996 Q 13.367370300292972 1.4298749999999996 13.372245300292972 1.4347499999999997 Q 13.377120300292972 1.4396249999999997 13.377120300292972 1.4478749999999998 L 13.377120300292972 1.9368749999999997 Q 13.377120300292972 1.9443749999999997 13.372245300292972 1.9496249999999997 Q 13.367370300292972 1.9548749999999997 13.359870300292974 1.9548749999999997 L 13.323870300292972 1.9548749999999997 Q 13.315620300292974 1.9548749999999997 13.311495300292973 1.9503749999999997 Q 13.307370300292973 1.9458749999999998 13.305870300292973 1.9443749999999997 L 13.057620300292973 1.5656249999999998 L 13.057620300292973 1.9376249999999997 Q 13.057620300292973 1.9451249999999998 13.052745300292973 1.9499999999999997 Q 13.047870300292972 1.9548749999999997 13.039620300292972 1.9548749999999997 L 13.003620300292972 1.9548749999999997 M 13.672625793457035 1.9548749999999997 Q 13.665125793457035 1.9548749999999997 13.660250793457037 1.9499999999999997 Q 13.655375793457036 1.9451249999999998 13.655375793457036 1.9376249999999997 L 13.655375793457036 1.7606249999999997 L 13.474625793457035 1.4546249999999996 Q 13.473875793457035 1.4523749999999995 13.473125793457037 1.4501249999999997 Q 13.472375793457037 1.4478749999999998 13.472375793457037 1.4448749999999997 Q 13.472375793457037 1.4388749999999997 13.476875793457035 1.4343749999999997 Q 13.481375793457035 1.4298749999999996 13.487375793457035 1.4298749999999996 L 13.526375793457035 1.4298749999999996 Q 13.533125793457035 1.4298749999999996 13.538375793457035 1.4332499999999997 Q 13.543625793457036 1.4366249999999998 13.545875793457036 1.4426249999999996 L 13.692125793457036 1.6856249999999997 L 13.838375793457036 1.4426249999999996 Q 13.842125793457036 1.4366249999999998 13.847000793457036 1.4332499999999997 Q 13.851875793457035 1.4298749999999996 13.858625793457035 1.4298749999999996 L 13.896875793457035 1.4298749999999996 Q 13.903625793457035 1.4298749999999996 13.908125793457035 1.4343749999999997 Q 13.912625793457035 1.4388749999999997 13.912625793457035 1.4448749999999997 Q 13.912625793457035 1.4478749999999998 13.911875793457035 1.4501249999999997 Q 13.911125793457035 1.4523749999999995 13.909625793457035 1.4546249999999996 L 13.729625793457036 1.7606249999999997 L 13.729625793457036 1.9376249999999997 Q 13.729625793457036 1.9451249999999998 13.724750793457035 1.9499999999999997 Q 13.719875793457035 1.9548749999999997 13.711625793457035 1.9548749999999997 L 13.672625793457035 1.9548749999999997" fill="#3361e1" fill-rule="nonzero"></path></g><g clip-path="url(#SvgjsClipPath1001)"><g clip-path="url(#SvgjsClipPath1000fa146830-b45e-4fd4-a96b-49dbaf7e90d5)"><path d=" M 12.655395708160068 -9.999051558767958 L 8.387960833324492 -9.999051558767958 C 8.14775739298173 -9.999051558767958 7.953034030771357 -9.804328196557588 7.953034030771357 -9.564124756214822 C 7.953034030771357 -9.323921315872058 8.14775739298173 -9.129197953661688 8.387960833324492 -9.129197953661688 L 12.655395708160068 -9.129197953661688 C 12.895599148502836 -9.129197953661688 13.090322510713204 -9.323921315872058 13.090322510713204 -9.564124756214822 C 13.090322510713204 -9.804328196557588 12.895599148502836 -9.999051558767958 12.655395708160068 -9.999051558767958 Z" fill="#000000" transform="matrix(1,0,0,1,0,0)" fill-rule="nonzero"></path></g><g clip-path="url(#SvgjsClipPath1000fa146830-b45e-4fd4-a96b-49dbaf7e90d5)"><path d=" M 8.971364955087685 -1.4817127048304783 L 4.6927558070172815 -1.4817127048304783 C 4.577406047106999 -1.4817127048304766 4.466780713052977 -1.4358901911232458 4.385216115612178 -1.3543255936824448 C 4.30365151817138 -1.2727609962416473 4.257829004464147 -1.1621356621876195 4.257829004464147 -1.0467859022773425 C 4.257829004464147 -0.8065824619345765 4.452552366674519 -0.6118590997242066 4.6927558070172815 -0.6118590997242066 L 8.971364955087685 -0.6118590997242066 C 9.211568395430447 -0.6118590997242066 9.40629175764082 -0.8065824619345765 9.40629175764082 -1.0467859022773425 C 9.40629175764082 -1.162135662187623 9.360469243933586 -1.272760996241649 9.278904646492789 -1.3543255936824483 C 9.19734004905199 -1.4358901911232458 9.086714714997964 -1.4817127048304766 8.971364955087685 -1.4817127048304766 Z" fill="#000000" transform="matrix(1,0,0,1,0,0)" fill-rule="nonzero"></path></g><g clip-path="url(#SvgjsClipPath1000fa146830-b45e-4fd4-a96b-49dbaf7e90d5)"><path d=" M 3.7850301141809988 -7.312475243489356 L 6.970032545185494 -7.312475243489356 C 7.210235985528256 -7.312475243489356 7.404959347738628 -7.507198605699726 7.404959347738628 -7.74740204604249 C 7.404959347738628 -7.987605486385255 7.210235985528256 -8.182328848595624 6.970032545185494 -8.182328848595624 L 3.7850301141809988 -8.182328848595624 C 3.544826673838236 -8.182328848595624 3.3501033116278642 -7.987605486385255 3.3501033116278642 -7.74740204604249 C 3.3501033116278642 -7.507198605699726 3.544826673838236 -7.312475243489356 3.7850301141809988 -7.312475243489356 Z" fill="#000000" transform="matrix(1,0,0,1,0,0)" fill-rule="nonzero"></path></g><g clip-path="url(#SvgjsClipPath1000fa146830-b45e-4fd4-a96b-49dbaf7e90d5)"><path d=" M 3.8105235159921884 -5.45433411935081 C 3.8105235159921884 -5.338984359440531 3.8563460296994214 -5.228359025386504 3.9379106271402193 -5.146794427945705 C 4.019475224581018 -5.065229830504907 4.130100558635039 -5.019407316797675 4.245450318545323 -5.019407316797675 L 7.549221222554713 -5.019407316797675 C 7.789424662897471 -5.019407316797675 7.984148025107848 -5.214130679008044 7.984148025107848 -5.4543341193508095 C 7.984148025107848 -5.694537559693575 7.789424662897471 -5.8892609219039445 7.549221222554713 -5.8892609219039445 L 4.245450318545323 -5.8892609219039445 C 4.00524687820256 -5.8892609219039445 3.8105235159921884 -5.694537559693575 3.8105235159921884 -5.45433411935081 Z" fill="#000000" transform="matrix(1,0,0,1,0,0)" fill-rule="nonzero"></path></g><g clip-path="url(#SvgjsClipPath1000fa146830-b45e-4fd4-a96b-49dbaf7e90d5)"><path d=" M 5.980339878021886 -3.220750796885242 C 5.980339878021886 -3.460954237228007 5.7856165158115145 -3.655677599438377 5.545413075468751 -3.655677599438377 L 1.4943041010415243 -3.655677599438377 C 1.2541006606987661 -3.655677599438377 1.0593772984883945 -3.460954237228007 1.0593772984883945 -3.220750796885242 C 1.0593772984883945 -2.980547356542477 1.2541006606987661 -2.785823994332107 1.4943041010415243 -2.785823994332107 L 5.545413075468751 -2.785823994332107 C 5.7856165158115145 -2.785823994332107 5.980339878021886 -2.980547356542477 5.980339878021886 -3.220750796885242 Z" fill="#000000" transform="matrix(1,0,0,1,0,0)" fill-rule="nonzero"></path></g><g clip-path="url(#SvgjsClipPath1000fa146830-b45e-4fd4-a96b-49dbaf7e90d5)"><path d=" M 14.628223684541089 -9.7498719568129 C 14.603783672937524 -9.960529222461547 14.487051400816135 -10.149453124443811 14.309589617809085 -10.265561321009363 C 14.193255719501511 -10.341617111492093 14.057278740183975 -10.382121882006997 13.918289319142813 -10.382121704093603 C 13.847495328146623 -10.382146502330787 13.777091615297685 -10.371637812328352 13.709390630285759 -10.350940797941332 C 12.792192528481035 -10.057435800059944 11.894283802431731 -9.706755501168344 11.020940784165402 -9.300960584762297 C 9.055941490230325 -8.387413563953373 7.720916941839534 -7.402538547525744 7.053070108565252 -6.373769379948137 C 5.863627790065862 -4.536985551294801 6.385240433821055 -2.0840262930364073 8.219142322118103 -0.8901453415424374 C 8.860593871364873 -0.4725248798200177 9.60955466594485 -0.2502472449532096 10.374974114650321 -0.2503345590788868 C 11.719212887109697 -0.24736537097505895 12.972854760315746 -0.9276459242307453 13.703034007786908 -2.056284466911059 C 14.358769802405483 -3.065716119728993 14.711194336105077 -4.679696028095789 14.751341425571518 -6.853259451809023 C 14.768876524395122 -7.820397787230878 14.727761857370101 -8.787709708705393 14.628223684541094 -9.749871956812868 Z" fill="#000000" transform="matrix(1,0,0,1,0,0)" fill-rule="nonzero"></path></g><g clip-path="url(#SvgjsClipPath1000fa146830-b45e-4fd4-a96b-49dbaf7e90d5)"><path d=" M 13.103637962052908 -2.44510902839356 C 12.126243636242577 -0.9398005174120012 10.113621547743854 -0.5118303589449376 8.608301442679481 -1.489206828197549 C 7.102992931697917 -2.466601154007872 6.67502277323086 -4.479223242506593 7.652399242483463 -5.984543347570971 C 9.084312100119945 -8.189622236515362 13.918289319142819 -9.667436599775137 13.918289319142819 -9.667436599775137 C 13.918289319142819 -9.667436599775137 14.506109620747324 -4.604754794425094 13.103637962052908 -2.44510902839356 Z" fill="#3361e1" transform="matrix(1,0,0,1,0,0)" fill-rule="nonzero"></path></g><g clip-path="url(#SvgjsClipPath1000fa146830-b45e-4fd4-a96b-49dbaf7e90d5)"><path d=" M 7.652399242483472 -5.984543347570971 C 7.351123369868726 -5.521864867634052 7.173356731151204 -4.989739773118725 7.136040760129245 -4.438880403112908 C 7.374494140044678 -4.020851281504778 7.709443823835694 -3.6658963837229557 8.112953270479355 -3.403620789404891 C 9.618469125470975 -2.426239896344333 11.701099391542714 -2.962337364352905 12.765064174219239 -4.601342291820448 C 13.580719208545808 -5.857611633041232 13.84682749989255 -7.971355893449466 13.917820936432376 -9.66763733522247 C 13.901026070672248 -9.662284389960277 9.081568715673072 -8.185741351200273 7.652399242483472 -5.984543347570971 Z" fill="#51a8db" transform="matrix(1,0,0,1,0,0)" fill-rule="nonzero"></path></g><g clip-path="url(#SvgjsClipPath1000fa146830-b45e-4fd4-a96b-49dbaf7e90d5)"><path d=" M 7.908604585095163 -6.329406846087717 C 8.07111310387804 -6.160955503986575 8.252221046233565 -6.011498800937111 8.448449114787259 -5.883907976641757 C 9.953964969778886 -4.906527083581192 12.00962977409233 -5.401005402176218 13.040339384327483 -6.988488231495159 C 13.49139193448297 -7.68316670289618 13.760778904802805 -8.653789502563223 13.917754024616597 -9.667235864327804 C 13.891190033752968 -9.659139534618738 9.579124977793864 -8.336025289436325 7.908604585095163 -6.329406846087717 Z" fill="#dddee0" transform="matrix(1,0,0,1,0,0)" fill-rule="nonzero"></path></g></g></g><defs><clipPath id="SvgjsClipPath1001"><path d=" M 1.0593772984883945 -10.382121704093603 h 13.695845012398209 v 10.132121704093603 h -13.695845012398209 Z"></path></clipPath><clipPath id="SvgjsClipPath1000fa146830-b45e-4fd4-a96b-49dbaf7e90d5"><path d=" M 1.0593772984883945 -10.382121704093603 L 14.755222310886603 -10.382121704093603 L 14.755222310886603 -0.25 L 1.0593772984883945 -0.25 Z"></path></clipPath></defs></svg>